# 
# Generated by Sweet Home 3D - Wed Jul 29 12:48:23 CEST 2020
# http://www.sweethome3d.com/
# 
mtllib Soil_2.mtl
g 1_1_1_1
usemtl bottom
v -49.537483 0.50000876 52.358246
v 50.462517 0.50000876 52.358246
v 50.462517 0.5 -47.641754
v -49.537483 0.5 -47.641754
vt 0.0 0.0 0
vt 20.0 0.0 0
vt 20.0 20.0 0
vt 0.0 20.0 0
vn 0.0 1.0 -0.0000001
f 1/1/1 2/2/1 3/3/1
f 1/1/1 3/3/1 4/4/1
g 2_2_2_2
usemtl back
v -49.537483 0.0000088 52.358246
v 50.462517 0.0000088 52.358246
vt 1.0 0.0 0
vt 1.0 1.0 0
vt 0.0 1.0 0
vn 0.0 0.0000001 1.0
f 2/1/2 1/5/2 5/6/2
f 2/1/2 5/6/2 6/7/2
g 3_3_3_3
usemtl left
v -49.537483 0 -47.641754
vn -1.0 -0.0 0.0
f 1/1/3 4/5/3 7/6/3
f 1/1/3 7/6/3 5/7/3
g 4_4_4_4
usemtl right
v 50.462517 0 -47.641754
vn 1.0 0.0 0.0
f 3/1/4 2/5/4 6/6/4
f 3/1/4 6/6/4 8/7/4
g 5_5_5_5
usemtl front
vn 0.0 -0.0000001 -1.0
f 4/1/5 3/5/5 8/6/5
f 4/1/5 8/6/5 7/7/5
g 6_6_6_6
usemtl top
vn 0.0 -1.0 0.0000001
f 7/1/6 8/2/6 6/3/6
f 7/1/6 6/3/6 5/4/6
